<svg width="16" height="16" viewBox="0 0 16 16" fill="none" xmlns="http://www.w3.org/2000/svg">
<path d="M10.1934 10.86L8.66675 12.3933V4.66666C8.66675 4.48985 8.59651 4.32028 8.47149 4.19526C8.34646 4.07023 8.17689 3.99999 8.00008 3.99999C7.82327 3.99999 7.6537 4.07023 7.52868 4.19526C7.40365 4.32028 7.33341 4.48985 7.33341 4.66666V12.3933L5.80675 10.86C5.68121 10.7345 5.51095 10.6639 5.33341 10.6639C5.15588 10.6639 4.98562 10.7345 4.86008 10.86C4.73455 10.9855 4.66402 11.1558 4.66402 11.3333C4.66402 11.5109 4.73455 11.6811 4.86008 11.8067L7.52675 14.4733C7.59015 14.534 7.66491 14.5816 7.74675 14.6133C7.82655 14.6486 7.91283 14.6668 8.00008 14.6668C8.08733 14.6668 8.17361 14.6486 8.25341 14.6133C8.33525 14.5816 8.41001 14.534 8.47341 14.4733L11.1401 11.8067C11.2656 11.6811 11.3361 11.5109 11.3361 11.3333C11.3361 11.1558 11.2656 10.9855 11.1401 10.86C11.0779 10.7978 11.0041 10.7485 10.9229 10.7149C10.8417 10.6812 10.7547 10.6639 10.6667 10.6639C10.4892 10.6639 10.319 10.7345 10.1934 10.86ZM12.6667 1.33333H3.33341C3.1566 1.33333 2.98703 1.40357 2.86201 1.52859C2.73699 1.65361 2.66675 1.82318 2.66675 1.99999C2.66675 2.17681 2.73699 2.34638 2.86201 2.4714C2.98703 2.59642 3.1566 2.66666 3.33341 2.66666H12.6667C12.8436 2.66666 13.0131 2.59642 13.1382 2.4714C13.2632 2.34638 13.3334 2.17681 13.3334 1.99999C13.3334 1.82318 13.2632 1.65361 13.1382 1.52859C13.0131 1.40357 12.8436 1.33333 12.6667 1.33333Z" fill="white"/>
</svg>
