<svg width="30" height="30" viewBox="0 0 30 30" fill="none" xmlns="http://www.w3.org/2000/svg">
<circle cx="15" cy="15" r="15" fill="#2B2440"/>
<path d="M22.625 17.875C22.625 18.0325 22.5624 18.1835 22.4511 18.2948C22.3397 18.4062 22.1887 18.4687 22.0312 18.4688H8.96875C8.81128 18.4688 8.66026 18.4062 8.54891 18.2948C8.43756 18.1835 8.375 18.0325 8.375 17.875C8.375 17.7175 8.43756 17.5665 8.54891 17.4552C8.66026 17.3438 8.81128 17.2812 8.96875 17.2812H22.0312C22.1887 17.2813 22.3397 17.3438 22.4511 17.4552C22.5624 17.5665 22.625 17.7175 22.625 17.875ZM8.96875 13.7188H22.0312C22.1887 13.7188 22.3397 13.6562 22.4511 13.5448C22.5624 13.4335 22.625 13.2825 22.625 13.125C22.625 12.9675 22.5624 12.8165 22.4511 12.7052C22.3397 12.5938 22.1887 12.5312 22.0312 12.5312H8.96875C8.81128 12.5312 8.66026 12.5938 8.54891 12.7052C8.43756 12.8165 8.375 12.9675 8.375 13.125C8.375 13.2825 8.43756 13.4335 8.54891 13.5448C8.66026 13.6562 8.81128 13.7188 8.96875 13.7188Z" fill="white" fill-opacity="0.5"/>
</svg>
